<svg width="48" height="48" viewBox="0 0 48 48" fill="none" xmlns="http://www.w3.org/2000/svg">
<g clip-path="url(#clip0_1077_207)">
<path d="M0 16.1C0 10.4051 0 7.55764 1.12587 5.39026C2.07462 3.56382 3.56382 2.07462 5.39026 1.12587C7.55764 0 10.4051 0 16.1 0H31.9C37.5949 0 40.4424 0 42.6097 1.12587C44.4362 2.07462 45.9254 3.56382 46.8741 5.39026C48 7.55764 48 10.4051 48 16.1V31.9C48 37.5949 48 40.4424 46.8741 42.6097C45.9254 44.4362 44.4362 45.9254 42.6097 46.8741C40.4424 48 37.5949 48 31.9 48H16.1C10.4051 48 7.55764 48 5.39026 46.8741C3.56382 45.9254 2.07462 44.4362 1.12587 42.6097C0 40.4424 0 37.5949 0 31.9V16.1Z" fill="black"/>
<path d="M24 24C24 20.9625 26.4624 18.5 29.5 18.5C32.5375 18.5 35 20.9625 35 24C35 27.0376 32.5375 29.5 29.5 29.5C26.4624 29.5 24 27.0376 24 24Z" fill="#1ABCFE"/>
<path d="M13 34.9999C13 31.9624 15.4624 29.4999 18.5 29.4999H24V34.9999C24 38.0375 21.5376 40.4999 18.5 40.4999C15.4624 40.4999 13 38.0375 13 34.9999Z" fill="#0ACF83"/>
<path d="M24 7.5V18.5H29.5C32.5376 18.5 35 16.0376 35 13C35 9.96244 32.5376 7.5 29.5 7.5H24Z" fill="#FF7262"/>
<path d="M13 13C13 16.0376 15.4624 18.5 18.5 18.5H24V7.5H18.5C15.4624 7.5 13 9.96243 13 13Z" fill="#F24E1E"/>
<path d="M13 24C13 27.0376 15.4624 29.5 18.5 29.5H24V18.5H18.5C15.4624 18.5 13 20.9625 13 24Z" fill="#A259FF"/>
</g>
<defs>
<clipPath id="clip0_1077_207">
<rect width="48" height="48" fill="white"/>
</clipPath>
</defs>
</svg>
